<svg width="17" height="12" viewBox="0 0 17 12" fill="none" xmlns="http://www.w3.org/2000/svg">
<path d="M0.200195 0.233398C1.29395 0.272461 2.14355 0.291992 2.74902 0.291992C3.35449 0.291992 4.2041 0.272461 5.29785 0.233398C5.31738 0.311523 5.32715 0.365234 5.32715 0.394531C5.32715 0.428711 5.31738 0.489746 5.29785 0.577637C5.07324 0.597168 4.89014 0.619141 4.74854 0.643555C4.61182 0.663086 4.44092 0.697266 4.23584 0.746094C4.03564 0.794922 3.88184 0.865723 3.77441 0.958496C3.66699 1.04639 3.61084 1.15381 3.60596 1.28076C3.54248 2.74072 3.51074 4.10059 3.51074 5.36035C4.05273 5.37988 4.87305 5.38965 5.97168 5.38965C6.87012 5.38965 7.771 5.375 8.67432 5.3457C8.65479 3.5293 8.63037 2.17432 8.60107 1.28076C8.59619 1.15381 8.54004 1.04639 8.43262 0.958496C8.3252 0.865723 8.16895 0.794922 7.96387 0.746094C7.75879 0.697266 7.58545 0.663086 7.44385 0.643555C7.30713 0.619141 7.12646 0.597168 6.90186 0.577637C6.88232 0.489746 6.87256 0.428711 6.87256 0.394531C6.87256 0.365234 6.88232 0.311523 6.90186 0.233398C8.00537 0.272461 8.85498 0.291992 9.45068 0.291992C10.0513 0.291992 10.9033 0.272461 12.0068 0.233398C12.0264 0.311523 12.0361 0.365234 12.0361 0.394531C12.0361 0.428711 12.0264 0.489746 12.0068 0.577637C11.7822 0.597168 11.5991 0.619141 11.4575 0.643555C11.3208 0.663086 11.1499 0.697266 10.9448 0.746094C10.7397 0.794922 10.5835 0.865723 10.4761 0.958496C10.3687 1.04639 10.3125 1.15381 10.3076 1.28076C10.2588 2.49658 10.2344 3.95166 10.2344 5.646C10.2344 7.33057 10.2588 8.78076 10.3076 9.99658C10.3125 10.1235 10.3687 10.2334 10.4761 10.3262C10.5835 10.4141 10.7397 10.4824 10.9448 10.5312C11.1499 10.5801 11.3208 10.6167 11.4575 10.6411C11.5991 10.6606 11.7822 10.6802 12.0068 10.6997C12.0264 10.7778 12.0361 10.8438 12.0361 10.8975C12.0361 10.9365 12.0264 10.9854 12.0068 11.0439C11.1768 11.0146 10.3247 11 9.45068 11C8.57666 11 7.72705 11.0146 6.90186 11.0439C6.88232 10.9854 6.87256 10.9365 6.87256 10.8975C6.87256 10.8145 6.88232 10.7485 6.90186 10.6997C7.12646 10.6802 7.30957 10.6606 7.45117 10.6411C7.59277 10.6167 7.76611 10.5801 7.97119 10.5312C8.17627 10.4824 8.33252 10.4141 8.43994 10.3262C8.54736 10.2334 8.60107 10.1235 8.60107 9.99658C8.64014 8.25342 8.66455 6.93262 8.67432 6.03418C7.771 6.00488 6.87012 5.99023 5.97168 5.99023C5.41504 5.99023 4.59473 6 3.51074 6.01953C3.51074 7.05957 3.5376 8.38525 3.59131 9.99658C3.59619 10.1235 3.65234 10.2334 3.75977 10.3262C3.86719 10.4141 4.021 10.4824 4.22119 10.5312C4.42627 10.5801 4.59717 10.6167 4.73389 10.6411C4.87549 10.6606 5.05859 10.6802 5.2832 10.6997C5.30273 10.7974 5.3125 10.8633 5.3125 10.8975C5.3125 10.9365 5.30273 10.9854 5.2832 11.0439C4.45312 11.0146 3.60352 11 2.73438 11C1.85547 11 1.00586 11.0146 0.185547 11.0439C0.166016 10.9854 0.15625 10.9365 0.15625 10.8975C0.15625 10.8145 0.166016 10.7485 0.185547 10.6997C0.410156 10.6802 0.59082 10.6606 0.727539 10.6411C0.869141 10.6167 1.04004 10.5801 1.24023 10.5312C1.44531 10.4824 1.60156 10.4141 1.70898 10.3262C1.81641 10.2334 1.87256 10.1235 1.87744 9.99658C1.93604 8.46826 1.96533 6.92773 1.96533 5.375C1.96533 3.79297 1.94092 2.42822 1.89209 1.28076C1.88721 1.15381 1.83105 1.04639 1.72363 0.958496C1.61621 0.865723 1.45996 0.794922 1.25488 0.746094C1.05469 0.697266 0.883789 0.663086 0.742188 0.643555C0.605469 0.619141 0.424805 0.597168 0.200195 0.577637C0.180664 0.489746 0.170898 0.428711 0.170898 0.394531C0.170898 0.345703 0.180664 0.291992 0.200195 0.233398ZM16.4595 10.6997C16.4888 10.7583 16.5034 10.8193 16.5034 10.8828C16.5034 10.9463 16.4888 11 16.4595 11.0439C15.8149 11.0146 15.1436 11 14.4453 11C13.7617 11 13.0977 11.0146 12.4531 11.0439C12.4336 10.9658 12.4238 10.9121 12.4238 10.8828C12.4238 10.8584 12.4336 10.7974 12.4531 10.6997C12.6289 10.6753 12.7656 10.6558 12.8633 10.6411C12.9609 10.6216 13.0928 10.5874 13.2588 10.5386C13.4248 10.4849 13.5493 10.4141 13.6323 10.3262C13.7202 10.2334 13.7666 10.1235 13.7715 9.99658C13.791 9.51318 13.8008 8.92725 13.8008 8.23877V6.80322C13.8008 6.10986 13.791 5.52393 13.7715 5.04541C13.7666 4.91846 13.7202 4.81104 13.6323 4.72314C13.5493 4.63037 13.4248 4.55957 13.2588 4.51074C13.0928 4.45703 12.9609 4.42285 12.8633 4.4082C12.7656 4.38867 12.6289 4.3667 12.4531 4.34229C12.4336 4.23486 12.4238 4.17383 12.4238 4.15918C12.4238 4.12988 12.4336 4.07617 12.4531 3.99805C13.0977 4.02734 13.7617 4.04199 14.4453 4.04199C15.1436 4.04199 15.8149 4.02734 16.4595 3.99805C16.4888 4.04199 16.5034 4.0957 16.5034 4.15918C16.5034 4.21777 16.4888 4.27881 16.4595 4.34229C16.3569 4.35693 16.2812 4.36914 16.2324 4.37891C16.1836 4.38867 16.103 4.40576 15.9907 4.43018C15.8784 4.45459 15.7905 4.48389 15.7271 4.51807C15.6636 4.54736 15.5928 4.58643 15.5146 4.63525C15.4414 4.68408 15.3853 4.74268 15.3462 4.81104C15.3071 4.87939 15.2876 4.95752 15.2876 5.04541C15.2485 5.87061 15.229 6.6958 15.229 7.521C15.229 8.34619 15.2485 9.17139 15.2876 9.99658C15.2876 10.0845 15.3071 10.1626 15.3462 10.231C15.3853 10.2993 15.4414 10.3579 15.5146 10.4067C15.5928 10.4556 15.6636 10.4971 15.7271 10.5312C15.7905 10.5605 15.8784 10.5874 15.9907 10.6118C16.103 10.6362 16.1836 10.6533 16.2324 10.6631C16.2812 10.6729 16.3569 10.6851 16.4595 10.6997Z" fill="#888888"/>
</svg>
