<svg width="18" height="12" viewBox="0 0 18 12" fill="none" xmlns="http://www.w3.org/2000/svg">
<path d="M0.200195 0.233398C1.29395 0.272461 2.14355 0.291992 2.74902 0.291992C3.35449 0.291992 4.2041 0.272461 5.29785 0.233398C5.31738 0.311523 5.32715 0.365234 5.32715 0.394531C5.32715 0.428711 5.31738 0.489746 5.29785 0.577637C5.07324 0.597168 4.89014 0.619141 4.74854 0.643555C4.61182 0.663086 4.44092 0.697266 4.23584 0.746094C4.03564 0.794922 3.88184 0.865723 3.77441 0.958496C3.66699 1.04639 3.61084 1.15381 3.60596 1.28076C3.54248 2.74072 3.51074 4.10059 3.51074 5.36035C4.05273 5.37988 4.87305 5.38965 5.97168 5.38965C6.87012 5.38965 7.771 5.375 8.67432 5.3457C8.65479 3.5293 8.63037 2.17432 8.60107 1.28076C8.59619 1.15381 8.54004 1.04639 8.43262 0.958496C8.3252 0.865723 8.16895 0.794922 7.96387 0.746094C7.75879 0.697266 7.58545 0.663086 7.44385 0.643555C7.30713 0.619141 7.12646 0.597168 6.90186 0.577637C6.88232 0.489746 6.87256 0.428711 6.87256 0.394531C6.87256 0.365234 6.88232 0.311523 6.90186 0.233398C8.00537 0.272461 8.85498 0.291992 9.45068 0.291992C10.0513 0.291992 10.9033 0.272461 12.0068 0.233398C12.0264 0.311523 12.0361 0.365234 12.0361 0.394531C12.0361 0.428711 12.0264 0.489746 12.0068 0.577637C11.7822 0.597168 11.5991 0.619141 11.4575 0.643555C11.3208 0.663086 11.1499 0.697266 10.9448 0.746094C10.7397 0.794922 10.5835 0.865723 10.4761 0.958496C10.3687 1.04639 10.3125 1.15381 10.3076 1.28076C10.2588 2.49658 10.2344 3.95166 10.2344 5.646C10.2344 7.33057 10.2588 8.78076 10.3076 9.99658C10.3125 10.1235 10.3687 10.2334 10.4761 10.3262C10.5835 10.4141 10.7397 10.4824 10.9448 10.5312C11.1499 10.5801 11.3208 10.6167 11.4575 10.6411C11.5991 10.6606 11.7822 10.6802 12.0068 10.6997C12.0264 10.7778 12.0361 10.8438 12.0361 10.8975C12.0361 10.9365 12.0264 10.9854 12.0068 11.0439C11.1768 11.0146 10.3247 11 9.45068 11C8.57666 11 7.72705 11.0146 6.90186 11.0439C6.88232 10.9854 6.87256 10.9365 6.87256 10.8975C6.87256 10.8145 6.88232 10.7485 6.90186 10.6997C7.12646 10.6802 7.30957 10.6606 7.45117 10.6411C7.59277 10.6167 7.76611 10.5801 7.97119 10.5312C8.17627 10.4824 8.33252 10.4141 8.43994 10.3262C8.54736 10.2334 8.60107 10.1235 8.60107 9.99658C8.64014 8.25342 8.66455 6.93262 8.67432 6.03418C7.771 6.00488 6.87012 5.99023 5.97168 5.99023C5.41504 5.99023 4.59473 6 3.51074 6.01953C3.51074 7.05957 3.5376 8.38525 3.59131 9.99658C3.59619 10.1235 3.65234 10.2334 3.75977 10.3262C3.86719 10.4141 4.021 10.4824 4.22119 10.5312C4.42627 10.5801 4.59717 10.6167 4.73389 10.6411C4.87549 10.6606 5.05859 10.6802 5.2832 10.6997C5.30273 10.7974 5.3125 10.8633 5.3125 10.8975C5.3125 10.9365 5.30273 10.9854 5.2832 11.0439C4.45312 11.0146 3.60352 11 2.73438 11C1.85547 11 1.00586 11.0146 0.185547 11.0439C0.166016 10.9854 0.15625 10.9365 0.15625 10.8975C0.15625 10.8145 0.166016 10.7485 0.185547 10.6997C0.410156 10.6802 0.59082 10.6606 0.727539 10.6411C0.869141 10.6167 1.04004 10.5801 1.24023 10.5312C1.44531 10.4824 1.60156 10.4141 1.70898 10.3262C1.81641 10.2334 1.87256 10.1235 1.87744 9.99658C1.93604 8.46826 1.96533 6.92773 1.96533 5.375C1.96533 3.79297 1.94092 2.42822 1.89209 1.28076C1.88721 1.15381 1.83105 1.04639 1.72363 0.958496C1.61621 0.865723 1.45996 0.794922 1.25488 0.746094C1.05469 0.697266 0.883789 0.663086 0.742188 0.643555C0.605469 0.619141 0.424805 0.597168 0.200195 0.577637C0.180664 0.489746 0.170898 0.428711 0.170898 0.394531C0.170898 0.345703 0.180664 0.291992 0.200195 0.233398ZM11.4204 10.3994L14.3428 8.37793C14.8018 8.06055 15.1289 7.74072 15.3242 7.41846C15.5195 7.09619 15.6172 6.68604 15.6172 6.18799C15.6172 5.90967 15.5757 5.66797 15.4927 5.46289C15.4097 5.25293 15.3022 5.09668 15.1704 4.99414C15.0386 4.8916 14.9141 4.81836 14.7969 4.77441C14.6846 4.72559 14.5527 4.70117 14.4014 4.70117C13.9033 4.70117 13.5029 4.81836 13.2002 5.05273C12.9023 5.28223 12.7534 5.60938 12.7534 6.03418C12.7534 6.29297 12.7949 6.52979 12.8779 6.74463C12.9609 6.95947 13.0439 7.1084 13.127 7.19141L13.2515 7.32324C13.2075 7.48926 13.1025 7.57959 12.9365 7.59424C12.9072 7.58447 12.8682 7.56982 12.8193 7.55029C12.7705 7.52588 12.6826 7.46729 12.5557 7.37451C12.4287 7.28174 12.3164 7.17676 12.2188 7.05957C12.1211 6.9375 12.0332 6.77148 11.9551 6.56152C11.877 6.35156 11.8379 6.12207 11.8379 5.87305C11.8379 5.42383 11.9673 5.04053 12.2261 4.72314C12.4849 4.40576 12.8169 4.17627 13.2222 4.03467C13.6274 3.88818 14.0815 3.81494 14.5845 3.81494C15.4048 3.81494 16.0518 4.00537 16.5254 4.38623C16.999 4.76709 17.2358 5.28223 17.2358 5.93164C17.2358 6.23926 17.1846 6.52734 17.082 6.7959C16.9795 7.05957 16.8354 7.2915 16.6499 7.4917C16.4644 7.69189 16.291 7.85547 16.1299 7.98242C15.9688 8.10938 15.7783 8.24121 15.5586 8.37793L13.7568 9.48389V9.55713H15.5C15.8418 9.55713 16.1543 9.44727 16.4375 9.22754C16.7207 9.00293 16.9429 8.75391 17.104 8.48047C17.2554 8.48047 17.375 8.51465 17.4629 8.58301L16.8037 11H11.6621C11.5547 10.9268 11.4741 10.7266 11.4204 10.3994Z" fill="#888888"/>
</svg>
