<svg width="18" height="15" viewBox="0 0 18 15" fill="none" xmlns="http://www.w3.org/2000/svg">
<path d="M0.200195 0.233398C1.29395 0.272461 2.14355 0.291992 2.74902 0.291992C3.35449 0.291992 4.2041 0.272461 5.29785 0.233398C5.31738 0.311523 5.32715 0.365234 5.32715 0.394531C5.32715 0.428711 5.31738 0.489746 5.29785 0.577637C5.07324 0.597168 4.89014 0.619141 4.74854 0.643555C4.61182 0.663086 4.44092 0.697266 4.23584 0.746094C4.03564 0.794922 3.88184 0.865723 3.77441 0.958496C3.66699 1.04639 3.61084 1.15381 3.60596 1.28076C3.54248 2.74072 3.51074 4.10059 3.51074 5.36035C4.05273 5.37988 4.87305 5.38965 5.97168 5.38965C6.87012 5.38965 7.771 5.375 8.67432 5.3457C8.65479 3.5293 8.63037 2.17432 8.60107 1.28076C8.59619 1.15381 8.54004 1.04639 8.43262 0.958496C8.3252 0.865723 8.16895 0.794922 7.96387 0.746094C7.75879 0.697266 7.58545 0.663086 7.44385 0.643555C7.30713 0.619141 7.12646 0.597168 6.90186 0.577637C6.88232 0.489746 6.87256 0.428711 6.87256 0.394531C6.87256 0.365234 6.88232 0.311523 6.90186 0.233398C8.00537 0.272461 8.85498 0.291992 9.45068 0.291992C10.0513 0.291992 10.9033 0.272461 12.0068 0.233398C12.0264 0.311523 12.0361 0.365234 12.0361 0.394531C12.0361 0.428711 12.0264 0.489746 12.0068 0.577637C11.7822 0.597168 11.5991 0.619141 11.4575 0.643555C11.3208 0.663086 11.1499 0.697266 10.9448 0.746094C10.7397 0.794922 10.5835 0.865723 10.4761 0.958496C10.3687 1.04639 10.3125 1.15381 10.3076 1.28076C10.2588 2.49658 10.2344 3.95166 10.2344 5.646C10.2344 7.33057 10.2588 8.78076 10.3076 9.99658C10.3125 10.1235 10.3687 10.2334 10.4761 10.3262C10.5835 10.4141 10.7397 10.4824 10.9448 10.5312C11.1499 10.5801 11.3208 10.6167 11.4575 10.6411C11.5991 10.6606 11.7822 10.6802 12.0068 10.6997C12.0264 10.7778 12.0361 10.8438 12.0361 10.8975C12.0361 10.9365 12.0264 10.9854 12.0068 11.0439C11.1768 11.0146 10.3247 11 9.45068 11C8.57666 11 7.72705 11.0146 6.90186 11.0439C6.88232 10.9854 6.87256 10.9365 6.87256 10.8975C6.87256 10.8145 6.88232 10.7485 6.90186 10.6997C7.12646 10.6802 7.30957 10.6606 7.45117 10.6411C7.59277 10.6167 7.76611 10.5801 7.97119 10.5312C8.17627 10.4824 8.33252 10.4141 8.43994 10.3262C8.54736 10.2334 8.60107 10.1235 8.60107 9.99658C8.64014 8.25342 8.66455 6.93262 8.67432 6.03418C7.771 6.00488 6.87012 5.99023 5.97168 5.99023C5.41504 5.99023 4.59473 6 3.51074 6.01953C3.51074 7.05957 3.5376 8.38525 3.59131 9.99658C3.59619 10.1235 3.65234 10.2334 3.75977 10.3262C3.86719 10.4141 4.021 10.4824 4.22119 10.5312C4.42627 10.5801 4.59717 10.6167 4.73389 10.6411C4.87549 10.6606 5.05859 10.6802 5.2832 10.6997C5.30273 10.7974 5.3125 10.8633 5.3125 10.8975C5.3125 10.9365 5.30273 10.9854 5.2832 11.0439C4.45312 11.0146 3.60352 11 2.73438 11C1.85547 11 1.00586 11.0146 0.185547 11.0439C0.166016 10.9854 0.15625 10.9365 0.15625 10.8975C0.15625 10.8145 0.166016 10.7485 0.185547 10.6997C0.410156 10.6802 0.59082 10.6606 0.727539 10.6411C0.869141 10.6167 1.04004 10.5801 1.24023 10.5312C1.44531 10.4824 1.60156 10.4141 1.70898 10.3262C1.81641 10.2334 1.87256 10.1235 1.87744 9.99658C1.93604 8.46826 1.96533 6.92773 1.96533 5.375C1.96533 3.79297 1.94092 2.42822 1.89209 1.28076C1.88721 1.15381 1.83105 1.04639 1.72363 0.958496C1.61621 0.865723 1.45996 0.794922 1.25488 0.746094C1.05469 0.697266 0.883789 0.663086 0.742188 0.643555C0.605469 0.619141 0.424805 0.597168 0.200195 0.577637C0.180664 0.489746 0.170898 0.428711 0.170898 0.394531C0.170898 0.345703 0.180664 0.291992 0.200195 0.233398ZM12.4971 8.73682L13.6982 8.15088C14.001 8.00439 14.2524 7.84326 14.4526 7.66748C14.6577 7.48682 14.8115 7.29883 14.9141 7.10352C15.0215 6.9082 15.0947 6.72998 15.1338 6.56885C15.1777 6.40283 15.1997 6.18555 15.1997 5.91699C15.1997 5.59473 15.0776 5.31152 14.8335 5.06738C14.5894 4.82324 14.2769 4.70117 13.896 4.70117C13.3833 4.70117 13 4.81592 12.7461 5.04541C12.4922 5.2749 12.3652 5.5752 12.3652 5.94629C12.3652 6.43945 12.4604 6.83008 12.6509 7.11816C12.5874 7.23047 12.4922 7.29395 12.3652 7.30859C11.8232 6.96191 11.5522 6.46143 11.5522 5.80713C11.5522 5.22119 11.7769 4.74268 12.2261 4.37158C12.6753 4.00049 13.3271 3.81494 14.1816 3.81494C14.9824 3.81494 15.6245 3.9834 16.1079 4.32031C16.5913 4.65234 16.833 5.1748 16.833 5.8877C16.833 6.36621 16.6499 6.80811 16.2837 7.21338C15.9175 7.61865 15.4707 7.90186 14.9434 8.06299V8.13623C15.2314 8.16064 15.5 8.22412 15.749 8.32666C16.0029 8.42432 16.2446 8.5708 16.4741 8.76611C16.7036 8.95654 16.8843 9.22021 17.0161 9.55713C17.1528 9.89404 17.2212 10.2847 17.2212 10.729C17.2212 11.2661 17.1016 11.7739 16.8623 12.2524C16.623 12.7358 16.3179 13.1362 15.9468 13.4536C15.5757 13.771 15.168 14.02 14.7236 14.2007C14.2842 14.3862 13.8569 14.479 13.4419 14.479C13.0757 14.479 12.7412 14.4351 12.4385 14.3472C12.1406 14.2593 11.8989 14.147 11.7134 14.0103C11.5278 13.8784 11.3716 13.7271 11.2446 13.5562C11.1177 13.3853 11.0298 13.2241 10.981 13.0728C10.9321 12.9214 10.9077 12.7798 10.9077 12.6479C10.9077 12.3501 10.998 12.106 11.1787 11.9155C11.3594 11.7251 11.584 11.6299 11.8525 11.6299C12.1699 11.6299 12.4214 11.7104 12.6069 11.8716C12.7925 12.0376 12.8853 12.2866 12.8853 12.6187C12.8853 12.8433 12.8071 13.0337 12.6509 13.1899C12.4995 13.3511 12.3481 13.4512 12.1968 13.4902C12.1968 13.5439 12.2383 13.6099 12.3213 13.688C12.4043 13.7661 12.5435 13.8394 12.7388 13.9077C12.939 13.981 13.1685 14.0176 13.4272 14.0176C14.0669 14.0176 14.5845 13.7344 14.98 13.168C15.3755 12.6016 15.5732 11.8545 15.5732 10.9268C15.5732 10.5459 15.522 10.2188 15.4194 9.94531C15.3218 9.66699 15.1826 9.45703 15.002 9.31543C14.8262 9.17383 14.6406 9.07129 14.4453 9.00781C14.2549 8.94434 14.0449 8.9126 13.8154 8.9126C13.4834 8.9126 13.105 8.99805 12.6802 9.16895L12.4971 8.73682Z" fill="#888888"/>
</svg>
