<svg width="19" height="15" viewBox="0 0 19 15" fill="none" xmlns="http://www.w3.org/2000/svg">
<path d="M0.280762 0.233398C1.37451 0.272461 2.22412 0.291992 2.82959 0.291992C3.43506 0.291992 4.28467 0.272461 5.37842 0.233398C5.39795 0.311523 5.40771 0.365234 5.40771 0.394531C5.40771 0.428711 5.39795 0.489746 5.37842 0.577637C5.15381 0.597168 4.9707 0.619141 4.8291 0.643555C4.69238 0.663086 4.52148 0.697266 4.31641 0.746094C4.11621 0.794922 3.9624 0.865723 3.85498 0.958496C3.74756 1.04639 3.69141 1.15381 3.68652 1.28076C3.62305 2.74072 3.59131 4.10059 3.59131 5.36035C4.1333 5.37988 4.95361 5.38965 6.05225 5.38965C6.95068 5.38965 7.85156 5.375 8.75488 5.3457C8.73535 3.5293 8.71094 2.17432 8.68164 1.28076C8.67676 1.15381 8.62061 1.04639 8.51318 0.958496C8.40576 0.865723 8.24951 0.794922 8.04443 0.746094C7.83936 0.697266 7.66602 0.663086 7.52441 0.643555C7.3877 0.619141 7.20703 0.597168 6.98242 0.577637C6.96289 0.489746 6.95312 0.428711 6.95312 0.394531C6.95312 0.365234 6.96289 0.311523 6.98242 0.233398C8.08594 0.272461 8.93555 0.291992 9.53125 0.291992C10.1318 0.291992 10.9839 0.272461 12.0874 0.233398C12.1069 0.311523 12.1167 0.365234 12.1167 0.394531C12.1167 0.428711 12.1069 0.489746 12.0874 0.577637C11.8628 0.597168 11.6797 0.619141 11.5381 0.643555C11.4014 0.663086 11.2305 0.697266 11.0254 0.746094C10.8203 0.794922 10.6641 0.865723 10.5566 0.958496C10.4492 1.04639 10.3931 1.15381 10.3882 1.28076C10.3394 2.49658 10.3149 3.95166 10.3149 5.646C10.3149 7.33057 10.3394 8.78076 10.3882 9.99658C10.3931 10.1235 10.4492 10.2334 10.5566 10.3262C10.6641 10.4141 10.8203 10.4824 11.0254 10.5312C11.2305 10.5801 11.4014 10.6167 11.5381 10.6411C11.6797 10.6606 11.8628 10.6802 12.0874 10.6997C12.1069 10.7778 12.1167 10.8438 12.1167 10.8975C12.1167 10.9365 12.1069 10.9854 12.0874 11.0439C11.2573 11.0146 10.4053 11 9.53125 11C8.65723 11 7.80762 11.0146 6.98242 11.0439C6.96289 10.9854 6.95312 10.9365 6.95312 10.8975C6.95312 10.8145 6.96289 10.7485 6.98242 10.6997C7.20703 10.6802 7.39014 10.6606 7.53174 10.6411C7.67334 10.6167 7.84668 10.5801 8.05176 10.5312C8.25684 10.4824 8.41309 10.4141 8.52051 10.3262C8.62793 10.2334 8.68164 10.1235 8.68164 9.99658C8.7207 8.25342 8.74512 6.93262 8.75488 6.03418C7.85156 6.00488 6.95068 5.99023 6.05225 5.99023C5.49561 5.99023 4.67529 6 3.59131 6.01953C3.59131 7.05957 3.61816 8.38525 3.67188 9.99658C3.67676 10.1235 3.73291 10.2334 3.84033 10.3262C3.94775 10.4141 4.10156 10.4824 4.30176 10.5312C4.50684 10.5801 4.67773 10.6167 4.81445 10.6411C4.95605 10.6606 5.13916 10.6802 5.36377 10.6997C5.3833 10.7974 5.39307 10.8633 5.39307 10.8975C5.39307 10.9365 5.3833 10.9854 5.36377 11.0439C4.53369 11.0146 3.68408 11 2.81494 11C1.93604 11 1.08643 11.0146 0.266113 11.0439C0.246582 10.9854 0.236816 10.9365 0.236816 10.8975C0.236816 10.8145 0.246582 10.7485 0.266113 10.6997C0.490723 10.6802 0.671387 10.6606 0.808105 10.6411C0.949707 10.6167 1.12061 10.5801 1.3208 10.5312C1.52588 10.4824 1.68213 10.4141 1.78955 10.3262C1.89697 10.2334 1.95312 10.1235 1.95801 9.99658C2.0166 8.46826 2.0459 6.92773 2.0459 5.375C2.0459 3.79297 2.02148 2.42822 1.97266 1.28076C1.96777 1.15381 1.91162 1.04639 1.8042 0.958496C1.69678 0.865723 1.54053 0.794922 1.33545 0.746094C1.13525 0.697266 0.964355 0.663086 0.822754 0.643555C0.686035 0.619141 0.505371 0.597168 0.280762 0.577637C0.26123 0.489746 0.251465 0.428711 0.251465 0.394531C0.251465 0.345703 0.26123 0.291992 0.280762 0.233398ZM16.54 3.9834V9.6377H18.4736C18.332 10.5264 18.2588 10.9805 18.2539 11H16.54V14.208H15.0386V11H10.9004C10.7686 10.9365 10.7026 10.7925 10.7026 10.5679L16.0713 3.81494C16.2812 3.81494 16.4375 3.87109 16.54 3.9834ZM15.0679 6.15137L12.3066 9.6377H15.0679V6.15137Z" fill="#888888"/>
</svg>
